<?xml version="1.0" encoding="utf-8"?>
<!-- Generator: Adobe Illustrator 25.2.1, SVG Export Plug-In . SVG Version: 6.00 Build 0)  -->
<svg version="1.1" id="Layer_1" xmlns="http://www.w3.org/2000/svg" xmlns:xlink="http://www.w3.org/1999/xlink" x="0px" y="0px"
	 viewBox="0 0 50 50" style="enable-background:new 0 0 50 50;" xml:space="preserve">
<style type="text/css">
	.st0{fill:#0098FF;}
	.st1{display:none;fill:#E1F4FF;}
	.st2{display:none;opacity:0.1;fill:#50B0FF;}
	.st3{opacity:0.2;fill:#7ED1E2;}
	.st4{opacity:0.42;fill:#50B0FF;}
	.st5{fill:#FFFFFF;stroke:#BDE1FF;stroke-miterlimit:10;}
	.st6{fill:#CBCFD5;stroke:#BDE1FF;stroke-miterlimit:10;}
	.st7{opacity:0.42;fill:#BDE1FF;}
	.st8{opacity:0.42;}
	.st9{fill:#50B0FF;}
	.st10{fill:#FFFFFF;}
</style>
<circle class="st0" cx="25.4" cy="24.64" r="23.36"/>
<circle class="st1" cx="25.4" cy="24.64" r="23.36"/>
<path class="st2" d="M32.94,24.84c-0.55,10.19-7.56,18.5-16.85,21.18c2.51,1.1,5.25,1.79,8.14,1.94
	c12.88,0.7,23.89-9.18,24.59-22.06S39.66,2.01,26.77,1.31c-2.69-0.15-5.3,0.17-7.75,0.88C27.67,6,33.49,14.86,32.94,24.84z"/>
<g>
	<path class="st3" d="M31.34,45.78C31.34,45.78,31.34,45.78,31.34,45.78c-1.2,0-2.36-0.63-3.17-1.73c-1.52-2.06-1.67-4.53-1.81-6.93
		c-0.07-1.17-0.14-2.38-0.38-3.49c-0.02-0.11-0.04-0.24-0.06-0.37c-0.07-0.45-0.15-1-0.46-1.19c-0.03-0.02-0.04-0.02-0.04-0.02
		c-0.05,0.02-0.16,0.16-0.34,0.68l-0.02,0.07c-0.48,1.42-0.58,2.99-0.67,4.52c-0.14,2.32-0.28,4.72-1.77,6.72
		c-0.81,1.1-1.97,1.73-3.17,1.73c-0.95,0-1.82-0.38-2.54-1.11c-1.69-1.72-2.13-4.42-2.34-6.83c-0.38-4.5-1.22-9.03-2.02-13.41
		l-0.01-0.04c-0.16-0.88-0.32-1.77-0.48-2.65c-0.09-0.52-0.2-1.06-0.32-1.63c-0.76-3.74-1.7-8.39,1.06-11.94
		c1.29-1.66,3.36-2.65,5.83-2.78c0.21-0.01,0.42-0.02,0.65-0.02c0.95,0,1.91,0.1,2.83,0.2c0.49,0.05,1,0.11,1.5,0.15
		c1.39,0.11,2.78-0.02,4.13-0.15c1.12-0.1,2.28-0.21,3.47-0.21c0.33,0,0.66,0.01,0.97,0.03c2.47,0.13,4.54,1.12,5.83,2.78
		c2.76,3.55,1.82,8.2,1.06,11.94c-0.12,0.57-0.23,1.11-0.32,1.63c-0.16,0.88-0.32,1.77-0.48,2.65l-0.01,0.04
		c-0.81,4.38-1.64,8.92-2.02,13.41c-0.21,2.41-0.65,5.11-2.34,6.83C33.17,45.4,32.29,45.78,31.34,45.78z M19.27,5.97
		c-0.21,0-0.41,0.01-0.61,0.02c-2.28,0.12-4.19,1.03-5.37,2.54c-2.59,3.34-1.68,7.84-0.95,11.46c0.12,0.57,0.23,1.12,0.32,1.65
		c0.16,0.88,0.32,1.77,0.48,2.65l0.01,0.04c0.81,4.4,1.64,8.94,2.03,13.47c0.2,2.31,0.61,4.88,2.17,6.46
		c0.6,0.61,1.32,0.93,2.09,0.93c1,0,1.97-0.54,2.67-1.48c1.38-1.86,1.51-4.07,1.65-6.41c0.09-1.56,0.19-3.18,0.7-4.67l0.02-0.07
		c0.15-0.46,0.34-0.93,0.73-1.06c0.13-0.05,0.34-0.07,0.58,0.08c0.54,0.34,0.65,1.07,0.73,1.61c0.02,0.12,0.04,0.24,0.06,0.33
		c0.25,1.16,0.32,2.39,0.39,3.58c0.14,2.31,0.28,4.69,1.7,6.61c0.7,0.94,1.67,1.48,2.67,1.48c0.77,0,1.5-0.32,2.09-0.93
		c1.56-1.59,1.97-4.16,2.17-6.46c0.39-4.52,1.22-9.07,2.03-13.47l0.01-0.04c0.16-0.88,0.32-1.76,0.48-2.65
		c0.09-0.53,0.2-1.07,0.32-1.65c0.73-3.62,1.65-8.12-0.95-11.46c-1.18-1.52-3.08-2.42-5.37-2.54c-0.3-0.02-0.61-0.02-0.94-0.02
		c-1.16,0-2.3,0.11-3.41,0.21C26.41,6.3,25,6.43,23.55,6.32c-0.51-0.04-1.02-0.09-1.52-0.15C21.13,6.07,20.19,5.97,19.27,5.97z"/>
	<path class="st4" d="M31.34,45.72L31.34,45.72c-1.18,0-2.32-0.62-3.12-1.71c-1.51-2.04-1.66-4.51-1.8-6.89
		c-0.07-1.17-0.14-2.38-0.38-3.5c-0.02-0.11-0.04-0.23-0.06-0.36c-0.07-0.46-0.16-1.03-0.48-1.23C25.46,32,25.43,31.99,25.41,32
		c-0.16,0.06-0.33,0.56-0.38,0.72L25,32.79c-0.48,1.42-0.58,3-0.67,4.53c-0.14,2.31-0.28,4.7-1.76,6.69
		c-0.8,1.08-1.94,1.71-3.12,1.71c-0.93,0-1.79-0.38-2.5-1.09c-1.68-1.71-2.11-4.39-2.32-6.79c-0.38-4.5-1.22-9.03-2.02-13.42
		l-0.01-0.04c-0.16-0.88-0.32-1.77-0.48-2.65c-0.09-0.52-0.2-1.06-0.32-1.63c-0.75-3.72-1.69-8.36,1.05-11.89
		c1.28-1.64,3.33-2.62,5.78-2.76c0.21-0.01,0.42-0.02,0.64-0.02c0.95,0,1.9,0.1,2.82,0.2c0.49,0.05,1,0.11,1.5,0.15
		c1.4,0.11,2.79-0.02,4.14-0.15c1.12-0.1,2.28-0.21,3.46-0.21c0.33,0,0.66,0.01,0.97,0.03c2.45,0.13,4.5,1.11,5.78,2.76
		c2.74,3.53,1.8,8.17,1.05,11.89c-0.12,0.57-0.23,1.11-0.32,1.63c-0.16,0.88-0.32,1.77-0.48,2.65l-0.01,0.04
		c-0.81,4.38-1.64,8.92-2.02,13.42c-0.21,2.4-0.64,5.08-2.32,6.79C33.13,45.34,32.27,45.72,31.34,45.72z M19.27,5.91
		c-0.21,0-0.42,0.01-0.61,0.02c-2.3,0.13-4.22,1.04-5.41,2.57c-2.61,3.36-1.69,7.88-0.96,11.51c0.12,0.57,0.23,1.12,0.32,1.64
		c0.16,0.88,0.32,1.77,0.48,2.65l0.01,0.04c0.81,4.4,1.64,8.94,2.03,13.46c0.2,2.32,0.61,4.9,2.18,6.5
		c0.61,0.62,1.35,0.94,2.14,0.94c1.02,0,2.01-0.55,2.72-1.51c1.39-1.88,1.52-4.09,1.66-6.44c0.09-1.56,0.19-3.17,0.7-4.65l0.02-0.07
		c0.15-0.45,0.33-0.9,0.69-1.02c0.12-0.04,0.3-0.06,0.52,0.07c0.52,0.32,0.62,1.01,0.71,1.56c0.02,0.12,0.04,0.24,0.06,0.34
		c0.24,1.16,0.32,2.38,0.39,3.57c0.14,2.32,0.28,4.71,1.71,6.64c0.71,0.96,1.7,1.51,2.72,1.51c0.79,0,1.53-0.33,2.14-0.95
		c1.57-1.6,1.99-4.18,2.18-6.5c0.39-4.52,1.22-9.07,2.03-13.46l0.01-0.04c0.16-0.88,0.32-1.76,0.48-2.65
		c0.09-0.53,0.2-1.07,0.32-1.64c0.74-3.63,1.65-8.15-0.96-11.51c-1.19-1.53-3.11-2.44-5.41-2.57c-0.3-0.02-0.62-0.02-0.94-0.02
		c-1.16,0-2.31,0.11-3.41,0.21c-1.37,0.13-2.79,0.26-4.22,0.15c-0.51-0.04-1.02-0.09-1.52-0.15C21.13,6.01,20.2,5.91,19.27,5.91z"/>
	<g>
		<path class="st5" d="M36.76,9.07c-1.12-1.44-2.88-2.09-4.68-2.19c-3.03-0.16-5.95,0.61-9,0.32c-1.45-0.14-2.9-0.4-4.36-0.32
			c-1.8,0.1-3.56,0.75-4.68,2.19c-2.72,3.5-1.15,8.54-0.45,12.41c0.97,5.4,2.06,10.77,2.53,16.24c0.16,1.88,0.5,4.47,1.91,5.91
			c1.09,1.11,2.5,0.68,3.34-0.46c1.4-1.9,1.33-4.64,1.57-6.86c0.14-1.33,0.22-2.69,0.65-3.97c0.42-1.23,1.75-2.92,2.83-1.48
			c1.17,1.56,1.23,3.59,1.43,5.45c0.24,2.22,0.17,4.97,1.57,6.86c0.84,1.14,2.24,1.57,3.34,0.46c1.42-1.44,1.75-4.03,1.91-5.91
			c0.47-5.47,1.56-10.83,2.53-16.24C37.9,17.62,39.48,12.57,36.76,9.07z"/>
		<path class="st6" d="M31.34,44.34c-0.04,0-0.08,0-0.13,0c-0.67-0.05-1.34-0.46-1.84-1.13c-1.15-1.56-1.32-3.72-1.47-5.63
			c-0.03-0.44-0.07-0.86-0.11-1.27c-0.02-0.21-0.04-0.43-0.06-0.64c-0.16-1.68-0.33-3.41-1.36-4.78c-0.3-0.4-0.63-0.57-1-0.52
			c-0.72,0.11-1.43,1.1-1.73,1.98c-0.37,1.07-0.48,2.23-0.59,3.34c-0.02,0.21-0.04,0.41-0.06,0.62c-0.04,0.41-0.08,0.82-0.11,1.27
			c-0.15,1.91-0.32,4.06-1.47,5.63c-0.5,0.67-1.17,1.08-1.84,1.13c-0.58,0.04-1.13-0.19-1.59-0.66c-1.38-1.4-1.76-3.92-1.93-5.95
			c-0.39-4.56-1.23-9.13-2.04-13.55c-0.16-0.89-0.33-1.79-0.49-2.69c-0.1-0.53-0.21-1.08-0.32-1.66c-0.74-3.64-1.57-7.76,0.79-10.79
			c1.02-1.31,2.7-2.1,4.72-2.21c1.08-0.06,2.17,0.07,3.23,0.19c0.37,0.04,0.76,0.09,1.14,0.13c1.62,0.16,3.23,0.01,4.79-0.14
			c1.37-0.13,2.79-0.26,4.21-0.18c2.02,0.11,3.7,0.89,4.72,2.21l0,0c2.36,3.04,1.53,7.16,0.79,10.79c-0.12,0.58-0.23,1.13-0.32,1.66
			c-0.16,0.9-0.33,1.79-0.49,2.69c-0.81,4.42-1.65,8.98-2.04,13.54c-0.33,3.87-1.21,5.21-1.93,5.95
			C32.38,44.11,31.87,44.34,31.34,44.34z M19.27,6.93c-0.18,0-0.37,0-0.55,0.01c-1.99,0.11-3.63,0.88-4.63,2.16
			c-2.33,2.99-1.5,7.09-0.77,10.7c0.12,0.58,0.23,1.13,0.33,1.67c0.16,0.9,0.33,1.79,0.49,2.69c0.81,4.42,1.65,8.99,2.04,13.56
			c0.33,3.83,1.19,5.15,1.9,5.88c0.44,0.45,0.95,0.66,1.49,0.62c0.64-0.04,1.27-0.44,1.75-1.08c1.13-1.54,1.3-3.68,1.45-5.57
			c0.03-0.44,0.07-0.86,0.11-1.27c0.02-0.21,0.04-0.41,0.06-0.62c0.11-1.12,0.22-2.28,0.6-3.37c0.31-0.91,1.06-1.95,1.83-2.06
			c0.41-0.06,0.79,0.13,1.11,0.57c1.04,1.4,1.21,3.15,1.38,4.84c0.02,0.22,0.04,0.43,0.06,0.64c0.04,0.41,0.08,0.83,0.11,1.27
			c0.15,1.89,0.31,4.03,1.45,5.57c0.47,0.64,1.11,1.03,1.75,1.08c0.54,0.04,1.06-0.18,1.49-0.62c1.35-1.38,1.73-3.86,1.9-5.88
			c0.39-4.57,1.23-9.14,2.04-13.56c0.16-0.89,0.33-1.79,0.49-2.69c0.1-0.54,0.21-1.08,0.33-1.67c0.73-3.61,1.56-7.7-0.77-10.7
			c-1-1.29-2.64-2.05-4.63-2.16C30.66,6.87,29.25,7,27.88,7.13c-1.56,0.14-3.18,0.29-4.81,0.14c-0.38-0.04-0.77-0.08-1.14-0.13
			C21.06,7.04,20.16,6.93,19.27,6.93z"/>
	</g>
	<path class="st7" d="M36.76,9.07c-1.12-1.44-2.88-2.09-4.68-2.19c-3.03-0.16-5.95,0.61-9,0.32c-1.45-0.14-2.9-0.4-4.36-0.32
		c-1.8,0.1-3.56,0.75-4.68,2.19c-2.72,3.5-1.15,8.54-0.45,12.41c0.97,5.4,2.06,10.77,2.53,16.24c0.16,1.88,0.5,4.47,1.91,5.91
		c1.09,1.11,2.5,0.68,3.34-0.46c1.4-1.9,1.33-4.64,1.57-6.86c0.14-1.33,0.22-2.69,0.65-3.97c0.42-1.23,1.75-2.92,2.83-1.48
		c1.17,1.56,1.23,3.59,1.43,5.45c0.24,2.22,0.17,4.97,1.57,6.86c0.84,1.14,2.24,1.57,3.34,0.46c1.42-1.44,1.75-4.03,1.91-5.91
		c0.47-5.47,1.56-10.83,2.53-16.24C37.9,17.62,39.48,12.57,36.76,9.07z M34.4,16.54c-0.03,1.07-0.13,2.14-0.23,3.2
		c-0.1,1.13-0.2,2.26-0.31,3.39c-0.22,2.37-0.51,4.77-1.35,7.01c-0.29,0.79-0.66,1.59-1.18,2.26c-0.42,0.55-1.03,1.07-1.79,0.94
		c-0.85-0.14-2.04-3.23-2.52-3.95c-0.25-0.38-0.6-0.71-1.04-0.88c-0.46-0.17-0.95-0.14-1.42-0.02c-0.79,0.2-1.39,0.76-1.82,1.41
		c-0.47,0.71-0.76,1.51-1,2.31c-0.2,0.66-0.39,1.35-0.52,2.03c-0.24,1.3-0.34,2.61-0.67,3.9c-0.23,0.87-0.71,2.62-1.99,2.39
		c-0.58-0.1-0.91-0.69-1.12-1.17c-0.27-0.63-0.4-1.3-0.51-1.96c-0.16-0.98-0.27-1.96-0.42-2.94c-0.2-1.28-0.42-2.56-0.65-3.83
		c-0.24-1.27-0.49-2.55-0.76-3.81c-0.26-1.26-0.57-2.51-0.84-3.77c-0.52-2.47-0.87-4.98-0.96-7.51c-0.04-1.1-0.07-2.23,0.09-3.33
		c0.29-2,1.54-3.81,3.72-4.27c1.27-0.27,2.36-0.5,3.64-0.37c1.19,0.12,2.38,0.33,3.57,0.37c0.87,0.03,1.74-0.02,2.61-0.07
		c0.84-0.05,1.68-0.11,2.52-0.04c0.77,0.06,1.53,0.24,2.19,0.64c0.76,0.45,1.33,1.15,1.74,1.91C34.37,12.25,34.47,14.48,34.4,16.54z
		"/>
	<path class="st4" d="M36.76,9.07c-0.36-0.47-0.8-0.85-1.28-1.16c0.55,0.69,0.94,1.49,1.21,2.32c0.38,1.18,0.54,2.43,0.58,3.66
		c0.05,1.36-0.05,2.72-0.2,4.06c-0.16,1.33-0.38,2.66-0.63,3.98c-0.23,1.19-0.49,2.37-0.73,3.55c-0.41,1.95-0.76,3.91-1.11,5.87
		c-0.23,1.3-0.46,2.61-0.71,3.91c-0.16,0.87-0.31,1.74-0.5,2.61c-0.16,0.71-0.36,1.43-0.73,2.07c-0.3,0.52-0.76,0.99-1.4,1.02
		c-1.32,0.07-1.68-1.66-1.85-2.61c-0.12-0.63-0.18-1.27-0.27-1.9C29,35.63,28.79,34.8,28.53,34c-0.34-1.06-0.78-2.13-1.46-3.02
		c-0.66-0.88-1.81-1.5-2.9-0.98c-0.85,0.41-1.27,1.26-1.48,2.11c-0.21,0.87-0.24,1.77-0.26,2.66c-0.02,0.72-0.05,1.43-0.07,2.15
		c-0.02,0.81-0.06,1.62-0.16,2.42c-0.16,1.26-0.48,2.92-1.77,3.56c-0.71,0.35-1.41,0.09-1.95-0.42c-0.75-0.7-1.22-1.68-1.62-2.6
		c-0.28-0.64-0.52-1.3-0.73-1.96c0.17,1.86,0.53,4.32,1.9,5.71c1.09,1.11,2.5,0.68,3.34-0.46c1.4-1.9,1.33-4.64,1.57-6.86
		c0.14-1.33,0.22-2.69,0.65-3.97c0.42-1.23,1.75-2.92,2.83-1.48c1.17,1.56,1.23,3.59,1.43,5.45c0.24,2.22,0.17,4.97,1.57,6.86
		c0.84,1.14,2.24,1.57,3.34,0.46c1.42-1.44,1.75-4.03,1.91-5.91c0.47-5.47,1.56-10.83,2.53-16.24C37.9,17.62,39.48,12.57,36.76,9.07
		z"/>
	<path class="st4" d="M33.38,7.85c-0.17-0.07-0.34-0.12-0.51-0.18c-0.2-0.02-0.39-0.02-0.59-0.01c-0.64,0.03-1.27,0.17-1.88,0.32
		c-0.66,0.16-1.31,0.32-1.95,0.52c-0.54,0.17-1.1,0.33-1.61,0.58c-0.23,0.12-0.46,0.24-0.7,0.34c-0.11,0.05-0.23,0.1-0.36,0.13
		c-0.76-0.16-1.51-0.38-2.26-0.6c-0.5-0.15-1-0.3-1.5-0.47c-0.47-0.16-0.94-0.32-1.42-0.44c-0.45-0.11-0.91-0.17-1.38-0.15
		C18.8,7.92,18.38,8,17.97,8.11c-0.65,0.17-1.3,0.41-1.84,0.79c0.14-0.03,0.29-0.05,0.43-0.06c0.06-0.03,0.11-0.05,0.17-0.07
		c0.37-0.16,0.75-0.28,1.14-0.37c0.39-0.1,0.79-0.18,1.2-0.2c0.46-0.02,0.92,0.04,1.37,0.15c0.46,0.11,0.91,0.28,1.36,0.43
		c0.49,0.16,0.98,0.32,1.47,0.46c0.98,0.29,1.97,0.59,2.99,0.73c0.96,0.14,1.94,0.17,2.91,0.1c0.05-0.02,0.09-0.05,0.14-0.07
		c0.08-0.05,0.16-0.11,0.23-0.17c-0.99-0.01-1.98,0.01-2.97-0.13c-0.14-0.02-0.28-0.04-0.42-0.07c0.12-0.04,0.23-0.09,0.32-0.13
		c0.2-0.09,0.39-0.18,0.59-0.26c0.26-0.11,0.55-0.19,0.82-0.28c0.65-0.21,1.31-0.39,1.98-0.55c0.62-0.15,1.24-0.32,1.87-0.4
		c0.36-0.05,0.71-0.06,1.07-0.04c0.19,0.01,0.37,0.04,0.55,0.07c0.11,0.02,0.23,0.05,0.34,0.08C33.62,8.01,33.51,7.92,33.38,7.85z"
		/>
	<g class="st8">
		<path class="st9" d="M27.22,18.71c0.17-0.61,0.56-1.2,1.18-1.45c0.62-0.26,1.33-0.11,1.85,0.28c0.28,0.21,0.53,0.49,0.62,0.82
			c0.04,0.14-0.22-0.14-0.25-0.17c-0.67-0.68-1.75-0.57-2.51-0.03c-0.26,0.19-0.47,0.44-0.63,0.71
			C27.41,18.99,27.19,18.83,27.22,18.71z"/>
		<path class="st9" d="M23.3,18.71c-0.17-0.61-0.56-1.2-1.18-1.45c-0.62-0.26-1.33-0.11-1.85,0.28c-0.28,0.21-0.53,0.49-0.62,0.82
			c-0.04,0.14,0.22-0.14,0.25-0.17c0.67-0.68,1.75-0.57,2.51-0.03c0.26,0.19,0.47,0.44,0.63,0.71
			C23.11,18.99,23.33,18.83,23.3,18.71z"/>
	</g>
	<path class="st4" d="M29.07,21.37c-0.03-0.05-0.05-0.11-0.07-0.17c-0.02,0.01-0.04,0.02-0.05,0.03c0.05,0.02,0.05,0.12-0.02,0.13
		c-0.01,0-0.01,0-0.01,0c0.01,0.07,0.03,0.13,0.06,0.18c-0.01,0.04-0.03,0.09-0.07,0.13c-0.08,0.09-0.21,0.12-0.33,0.13
		c-0.24,0.02-0.48-0.02-0.71-0.06c-0.57-0.09-1.16-0.13-1.73-0.13c-0.63-0.01-1.25,0.04-1.87,0.17c-0.6,0.12-1.17,0.33-1.73,0.56
		c-0.31,0.13-0.61,0.26-0.92,0.39c-0.12,0.05-0.23,0.12-0.35,0.17c-0.06,0.02-0.11,0.04-0.17,0.02c-0.04-0.01-0.14-0.07-0.11-0.12
		c0.02-0.03,0-0.07-0.04-0.05c-0.19,0.12-0.06,0.39,0.15,0.38c0.11,0,0.22-0.05,0.32-0.1c0.08,0,0.16,0.02,0.24,0.07
		c0.14,0.08,0.25,0.22,0.34,0.35c0.21,0.3,0.36,0.64,0.56,0.95c0.4,0.63,0.92,1.2,1.65,1.49c0.83,0.32,1.74,0.27,2.52-0.16
		c0.37-0.21,0.71-0.48,0.95-0.84c0.23-0.34,0.37-0.72,0.49-1.1c0.12-0.37,0.2-0.75,0.33-1.12c0.12-0.35,0.28-0.75,0.64-0.91
		c0.02-0.01,0.04-0.03,0.04-0.05c0.02,0,0.03,0.01,0.05,0.01c0.04,0.01,0.09-0.02,0.12-0.05C29.23,21.6,29.14,21.49,29.07,21.37z"/>
	<path class="st4" d="M28.5,22.32c-0.14,0.3-0.22,0.61-0.31,0.92c-0.11,0.39-0.22,0.79-0.39,1.16c-0.18,0.4-0.43,0.73-0.79,1
		c-0.78,0.58-1.79,0.73-2.7,0.37c-0.75-0.3-1.26-0.89-1.65-1.56c-0.21-0.36-0.55-1.17-1.03-1.29c0.07-0.04,0.14-0.07,0.21-0.11
		c0.65-0.31,1.3-0.62,1.99-0.81c1.36-0.38,2.8-0.3,4.19-0.11c0.24,0.03,0.52,0.07,0.75-0.02C28.66,22.02,28.57,22.17,28.5,22.32z"/>
	<path class="st10" d="M22.18,23.14c0.18,0.15,0.4,0.25,0.63,0.29c0.5,0.11,1.04,0.05,1.54-0.03c0.51-0.08,1.02-0.2,1.52-0.32
		c0.58-0.14,1.16-0.33,1.66-0.65c0.22-0.14,0.42-0.31,0.57-0.52c-0.03,0-0.06-0.01-0.08-0.01c-1.39-0.2-2.82-0.28-4.19,0.11
		c-0.67,0.19-1.3,0.48-1.92,0.78C21.98,22.92,22.06,23.04,22.18,23.14z"/>
	<path class="st4" d="M27.25,24.33c-0.53-0.07-1.08-0.05-1.59,0.13c-0.28,0.1-0.56,0.22-0.82,0.36c-0.31,0.16-0.63,0.35-0.88,0.59
		c-0.04,0.04-0.08,0.08-0.11,0.12c0.14,0.09,0.29,0.17,0.46,0.24c0.91,0.36,1.93,0.22,2.7-0.37c0.35-0.26,0.59-0.59,0.78-0.98
		C27.61,24.39,27.43,24.36,27.25,24.33z"/>
</g>
</svg>
