<?xml version="1.0" encoding="utf-8"?>
<!-- Generator: Adobe Illustrator 25.2.1, SVG Export Plug-In . SVG Version: 6.00 Build 0)  -->
<svg version="1.1" xmlns="http://www.w3.org/2000/svg" xmlns:xlink="http://www.w3.org/1999/xlink" x="0px" y="0px"
	 viewBox="0 0 400 400" style="enable-background:new 0 0 400 400;" xml:space="preserve">
<style type="text/css">
	.st0{fill:#00AED6;}
	.st1{fill:#FFFFFF;}
</style>
<g id="Layer_2">
</g>
<g id="Layer_3">
	<path class="st0" d="M349,378H51c-16,0-29-13-29-29V51c0-16,13-29,29-29h298c16,0,29,13,29,29v298C378,365,365,378,349,378z"/>
</g>
<g id="Layer_1">
	<g id="Calque_1">
	</g>
	<path class="st1" d="M206.5,172.1c12.6,3.9,23.3,7.9,32,11.8c8.8,3.9,16.1,8.1,22.1,12.6c7.6,6,13.1,12.9,16.4,20.6
		c3.3,7.7,5,17.2,5,28.5c0,8.4-2,16.5-6,24.4c-4,7.9-9.7,14.9-17.1,21c-7.4,6.2-16.4,11.1-26.8,14.9c-10.4,3.8-22.3,5.7-35.5,5.7
		c-11.6,0-22.9-1.5-34-4.5c-11.1-3-20.4-6.9-28.1-11.6c-4.6-2.9-8.5-6.2-11.7-9.8c-3.1-3.7-4.7-7.9-4.7-12.6
		c0-5.2,2.4-10.2,7.2-14.7c4.8-4.6,10.7-6.9,17.6-6.9c6,0,12.2,1.6,18.9,4.7c5,2.4,10.3,4.3,15.9,5.9c5.6,1.6,11.9,2.4,18.9,2.4
		c9.9,0,17.2-2,21.9-6.1c4.6-4.1,7-9.1,7-15.1c0-5.8-1.2-10.1-3.7-13.2c-2.5-3-5.5-5.6-9.2-7.7c-7.6-4.5-16-7.9-25.1-10.2
		c-9.1-2.4-18-5.5-26.6-9.4c-11.6-5.2-20.7-11.9-27.3-20c-6.6-8.1-9.9-18.6-9.9-31.4c0-9.4,2-18,6-25.7c4-7.7,9.5-14.3,16.6-19.8
		c7.1-5.5,15.5-9.8,25.1-12.8c9.6-3,20.2-4.5,31.8-4.5c11.6,0,23,1.7,34.3,5.1c11.3,3.4,19.9,8.5,25.8,15.3c4,4.5,6,10.1,6,16.9
		c0,5.5-2.1,10.3-6.2,14.3c-4.1,4.1-10.5,6.1-19.1,6.1c-3.3,0-6.9-0.6-10.7-1.8c-3.8-1.2-6.7-2.8-8.7-4.9
		c-5.6-5.8-13.7-8.6-24.3-8.6c-5.3,0-10,1.6-14.2,4.7c-4.1,3.1-6.2,7.7-6.2,13.8c0,5.5,1.6,9.8,4.7,12.8
		C187.5,165.1,194.9,168.4,206.5,172.1z"/>
</g>
</svg>
