<?xml version="1.0" encoding="utf-8"?>
<!-- Generator: Adobe Illustrator 25.2.1, SVG Export Plug-In . SVG Version: 6.00 Build 0)  -->
<svg version="1.1" id="Layer_1" xmlns="http://www.w3.org/2000/svg" xmlns:xlink="http://www.w3.org/1999/xlink" x="0px" y="0px"
	 viewBox="0 0 50 50" style="enable-background:new 0 0 50 50;" xml:space="preserve">
<style type="text/css">
	.st0{fill:none;stroke:#FFFFFF;stroke-miterlimit:10;}
	.st1{display:none;fill:#E1F4FF;}
	.st2{display:none;opacity:0.1;fill:#50B0FF;enable-background:new    ;}
	.st3{opacity:0.2;fill:#7ED1E2;enable-background:new    ;}
	.st4{opacity:0.42;fill:#50B0FF;enable-background:new    ;}
	.st5{fill:#FFFFFF;stroke:#BDE1FF;stroke-miterlimit:10;}
	.st6{fill:#CBCFD5;stroke:#BDE1FF;stroke-miterlimit:10;}
	.st7{opacity:0.42;fill:#BDE1FF;enable-background:new    ;}
	.st8{opacity:0.42;}
	.st9{fill:#50B0FF;}
	.st10{fill:#FFFFFF;}
</style>
<circle class="st0" cx="25.4" cy="24.5" r="23.4"/>
<circle class="st1" cx="25.4" cy="24.6" r="23.4"/>
<path class="st2" d="M32.9,24.8C32.4,35,25.4,43.3,16.1,46c2.5,1.1,5.2,1.8,8.1,1.9c12.9,0.7,23.9-9.2,24.6-22.1S39.7,2,26.8,1.3
	c-2.7-0.1-5.3,0.2-7.8,0.9C27.7,6,33.5,14.9,32.9,24.8z"/>
<g>
	<path class="st3" d="M29.3,37.9L29.3,37.9c-0.8,0-1.6-0.4-2.1-1.1c-1-1.4-1.1-3-1.2-4.6c-0.1-0.8-0.1-1.6-0.3-2.3
		c0-0.1,0-0.1-0.1-0.3c-0.1-0.3-0.1-0.7-0.3-0.8l0,0c0,0-0.1,0.1-0.2,0.5v0.1c-0.3,0.9-0.4,2-0.5,3c-0.1,1.5-0.2,3.1-1.2,4.4
		c-0.5,0.7-1.3,1.1-2.1,1.1c-0.7,0-1.2-0.3-1.7-0.7c-1.1-1.1-1.4-2.9-1.5-4.5c-0.3-3-0.8-6-1.3-8.9l0,0c-0.1-0.6-0.2-1.2-0.3-1.7
		c-0.1-0.3-0.1-0.7-0.2-1.1c-0.5-2.6-1.1-5.7,0.7-8c0.9-1.1,2.3-1.8,3.9-1.9c0.1,0,0.3,0,0.4,0c0.7,0,1.3,0.1,1.9,0.1
		c0.3,0.1,0.7,0.1,1,0.1c0.9,0.1,1.9,0,2.7-0.1c0.7-0.1,1.5-0.1,2.3-0.1c0.2,0,0.5,0,0.7,0c1.7,0.1,3,0.7,3.9,1.9
		c1.9,2.4,1.2,5.4,0.7,7.9c-0.1,0.4-0.1,0.7-0.2,1.1c-0.1,0.6-0.2,1.2-0.3,1.7l0,0c-0.5,2.9-1.1,5.9-1.3,8.9
		c-0.1,1.6-0.5,3.4-1.5,4.5C30.6,37.6,30,37.9,29.3,37.9z M21.3,11.5c-0.1,0-0.3,0-0.4,0c-1.5,0.1-2.8,0.7-3.6,1.7
		c-1.7,2.2-1.1,5.2-0.6,7.6c0.1,0.4,0.1,0.7,0.2,1.1c0.1,0.6,0.2,1.2,0.3,1.7l0,0c0.5,2.9,1.1,5.9,1.3,9c0.1,1.5,0.4,3.3,1.5,4.3
		c0.4,0.4,0.9,0.6,1.4,0.6c0.7,0,1.3-0.3,1.8-1c0.9-1.3,1-2.7,1.1-4.2c0.1-1.1,0.1-2.1,0.5-3.1V29c0.1-0.3,0.2-0.6,0.5-0.7
		c0.1,0,0.2-0.1,0.4,0.1c0.3,0.2,0.4,0.7,0.5,1.1c0,0.1,0,0.1,0.1,0.2c0.1,0.8,0.2,1.6,0.3,2.4c0.1,1.5,0.2,3.1,1.1,4.4
		c0.5,0.6,1.1,1,1.8,1c0.5,0,1-0.2,1.4-0.6c1.1-1.1,1.3-2.8,1.5-4.3c0.3-3,0.8-6,1.3-9l0,0c0.1-0.6,0.2-1.2,0.3-1.7
		c0.1-0.3,0.1-0.7,0.2-1.1c0.5-2.4,1.1-5.4-0.7-7.6c-0.8-0.9-2.1-1.5-3.6-1.6c-0.2,0-0.4,0-0.6,0c-0.8,0-1.5,0.1-2.3,0.1
		c-0.9,0.1-1.9,0.2-2.8,0.1c-0.3,0-0.7-0.1-1-0.1C22.5,11.5,21.9,11.5,21.3,11.5z"/>
	<path class="st4" d="M29.3,37.8L29.3,37.8c-0.8,0-1.5-0.4-2.1-1.1c-1-1.3-1.1-3-1.2-4.6c-0.1-0.8-0.1-1.6-0.3-2.3
		c0-0.1,0-0.1-0.1-0.3c-0.1-0.3-0.1-0.7-0.3-0.8h-0.1c-0.1,0.1-0.2,0.4-0.3,0.5v0.1c-0.3,0.9-0.4,2-0.5,3c0,1.5-0.1,3.1-1.1,4.4
		c-0.5,0.7-1.3,1.1-2.1,1.1c-0.6,0-1.2-0.3-1.7-0.7c-1.1-1.1-1.4-2.9-1.5-4.5c-0.3-3-0.8-6-1.3-8.9l0,0c-0.1-0.6-0.2-1.2-0.3-1.7
		c-0.1-0.3-0.1-0.7-0.2-1.1c-0.5-2.5-1.1-5.6,0.7-7.9c0.9-1.1,2.2-1.7,3.9-1.9c0.1,0,0.3,0,0.4,0c0.7,0,1.3,0.1,1.9,0.1
		c0.3,0.1,0.7,0.1,1,0.1c0.9,0.1,1.9,0,2.7-0.1c0.7-0.1,1.5-0.1,2.3-0.1c0.2,0,0.5,0,0.7,0c1.7,0.1,3,0.7,3.9,1.9
		c1.8,2.3,1.2,5.4,0.7,7.9c-0.1,0.4-0.1,0.7-0.2,1.1c-0.1,0.6-0.2,1.2-0.3,1.7l0,0c-0.5,2.9-1.1,5.9-1.3,8.9
		c-0.1,1.6-0.4,3.4-1.5,4.5C30.5,37.6,30,37.8,29.3,37.8z M21.3,11.4c-0.1,0-0.3,0-0.4,0c-1.5,0.1-2.8,0.7-3.6,1.7
		c-1.7,2.3-1.1,5.2-0.7,7.6c0.1,0.4,0.1,0.7,0.2,1.1c0.1,0.6,0.2,1.2,0.3,1.7l0,0c0.5,2.9,1.1,5.9,1.3,9c0.1,1.5,0.4,3.3,1.5,4.3
		c0.4,0.4,0.9,0.6,1.4,0.6c0.7,0,1.3-0.3,1.8-1c0.9-1.3,1-2.7,1.1-4.2c0.1-1.1,0.1-2.1,0.5-3.1V29c0.1-0.3,0.2-0.6,0.5-0.7
		c0.1,0,0.2-0.1,0.3,0.1c0.3,0.2,0.4,0.7,0.5,1.1c0,0.1,0,0.1,0.1,0.2c0.1,0.8,0.2,1.6,0.3,2.4c0.1,1.5,0.2,3.1,1.1,4.4
		c0.5,0.7,1.1,1,1.8,1c0.5,0,1-0.2,1.4-0.7c1.1-1.1,1.3-2.8,1.5-4.3c0.3-3,0.8-6,1.3-9l0,0c0.1-0.6,0.2-1.2,0.3-1.7
		c0.1-0.3,0.1-0.7,0.2-1.1c0.5-2.4,1.1-5.4-0.7-7.6c-0.7-0.9-2-1.6-3.5-1.7c-0.2,0-0.4,0-0.6,0c-0.8,0-1.5,0.1-2.3,0.1
		c-0.9,0.1-1.9,0.2-2.8,0.1c-0.3,0-0.7-0.1-1-0.1C22.5,11.5,21.9,11.4,21.3,11.4z"/>
	<g>
		<path class="st5" d="M33,13.5c-0.7-0.9-1.9-1.4-3.1-1.5c-2-0.1-4,0.4-6,0.2c-1-0.1-1.9-0.3-2.9-0.2c-1.2,0.1-2.3,0.5-3.1,1.5
			c-1.8,2.3-0.7,5.6-0.3,8.2c0.7,3.6,1.4,7.2,1.7,10.8c0.1,1.3,0.3,3,1.3,3.9c0.7,0.7,1.7,0.5,2.2-0.3c0.9-1.3,0.9-3.1,1.1-4.6
			c0.1-0.9,0.1-1.8,0.4-2.7c0.3-0.8,1.2-1.9,1.9-1c0.8,1.1,0.8,2.4,0.9,3.7c0.1,1.5,0.1,3.3,1.1,4.6c0.5,0.7,1.5,1.1,2.2,0.3
			c0.9-0.9,1.2-2.7,1.3-3.9c0.3-3.7,1.1-7.2,1.7-10.8C33.7,19.2,34.8,15.8,33,13.5z"/>
		<path class="st6" d="M29.3,36.9L29.3,36.9c-0.5,0-0.9-0.3-1.3-0.7c-0.7-1.1-0.9-2.5-1-3.7c0-0.3-0.1-0.6-0.1-0.9
			c0-0.1,0-0.3-0.1-0.4c-0.1-1.1-0.2-2.3-0.9-3.2c-0.2-0.3-0.4-0.4-0.7-0.3c-0.5,0.1-0.9,0.7-1.1,1.3c-0.3,0.7-0.3,1.5-0.4,2.2
			c0,0.1,0,0.3-0.1,0.4c0,0.3-0.1,0.5-0.1,0.9c-0.1,1.3-0.2,2.7-1,3.7c-0.3,0.5-0.8,0.7-1.2,0.7c-0.4,0-0.7-0.1-1.1-0.5
			c-0.9-0.9-1.2-2.6-1.3-4c-0.3-3.1-0.8-6-1.3-9c-0.1-0.6-0.2-1.2-0.3-1.8c-0.1-0.3-0.1-0.7-0.2-1.1c-0.5-2.3-1.1-5,0.5-7.1
			c0.7-0.9,1.8-1.4,3.1-1.5c0.7-0.1,1.5,0.1,2.1,0.1c0.3,0,0.5,0.1,0.7,0.1c1.1,0.1,2.1,0,3.2-0.1c0.9-0.1,1.9-0.2,2.8-0.1
			c1.3,0.1,2.5,0.6,3.1,1.5l0,0c1.6,2,1,4.8,0.5,7.2c-0.1,0.4-0.1,0.7-0.2,1.1c-0.1,0.6-0.2,1.2-0.3,1.8c-0.5,2.9-1.1,6-1.3,9
			c-0.2,2.6-0.8,3.5-1.3,4C30,36.8,29.7,36.9,29.3,36.9z M21.3,12.1c-0.1,0-0.3,0-0.3,0c-1.3,0.1-2.4,0.6-3.1,1.5
			c-1.5,2-1,4.7-0.5,7.1c0.1,0.4,0.1,0.7,0.2,1.1c0.1,0.6,0.2,1.2,0.3,1.8c0.5,2.9,1.1,6,1.3,9c0.2,2.5,0.8,3.5,1.3,3.9
			c0.3,0.3,0.7,0.5,1,0.4c0.4,0,0.9-0.3,1.2-0.7c0.7-1,0.9-2.5,1-3.7c0-0.3,0.1-0.6,0.1-0.9c0-0.1,0-0.3,0.1-0.4
			c0.1-0.7,0.1-1.5,0.4-2.3c0.2-0.6,0.7-1.3,1.2-1.4c0.3-0.1,0.5,0.1,0.7,0.4c0.7,0.9,0.8,2.1,0.9,3.2c0,0.1,0,0.3,0.1,0.4
			c0,0.3,0.1,0.5,0.1,0.9c0.1,1.3,0.2,2.7,1,3.7c0.3,0.4,0.7,0.7,1.2,0.7c0.3,0,0.7-0.1,1-0.4c0.9-0.9,1.1-2.6,1.3-3.9
			c0.3-3.1,0.8-6,1.3-9c0.1-0.6,0.2-1.2,0.3-1.8c0.1-0.3,0.1-0.7,0.2-1.1c0.5-2.4,1.1-5.1-0.5-7.1c-0.7-0.9-1.7-1.4-3.1-1.5
			c-0.9-0.1-1.9,0.1-2.8,0.1c-1.1,0.1-2.1,0.2-3.2,0.1c-0.3,0-0.5-0.1-0.7-0.1C22.5,12.1,21.9,12.1,21.3,12.1z"/>
	</g>
	<path class="st7" d="M33,13.5c-0.7-0.9-1.9-1.4-3.1-1.5c-2-0.1-4,0.4-6,0.2c-1-0.1-1.9-0.3-2.9-0.2c-1.2,0.1-2.3,0.5-3.1,1.5
		c-1.8,2.3-0.7,5.6-0.3,8.2c0.7,3.6,1.4,7.2,1.7,10.8c0.1,1.3,0.3,3,1.3,3.9c0.7,0.7,1.7,0.5,2.2-0.3c0.9-1.3,0.9-3.1,1.1-4.6
		c0.1-0.9,0.1-1.8,0.4-2.7c0.3-0.8,1.2-1.9,1.9-1c0.8,1.1,0.8,2.4,0.9,3.7c0.1,1.5,0.1,3.3,1.1,4.6c0.5,0.7,1.5,1.1,2.2,0.3
		c0.9-0.9,1.2-2.7,1.3-3.9c0.3-3.7,1.1-7.2,1.7-10.8C33.7,19.2,34.8,15.8,33,13.5z M31.4,18.4c0,0.7-0.1,1.4-0.1,2.1
		c-0.1,0.7-0.1,1.5-0.2,2.3c-0.1,1.6-0.3,3.2-0.9,4.6C30,28,29.7,28.5,29.4,29c-0.3,0.3-0.7,0.7-1.2,0.6c-0.6-0.1-1.3-2.1-1.7-2.7
		c-0.1-0.3-0.4-0.5-0.7-0.6c-0.3-0.1-0.7-0.1-0.9,0c-0.5,0.1-0.9,0.5-1.2,0.9c-0.3,0.5-0.5,1-0.7,1.5c-0.1,0.5-0.3,0.9-0.3,1.3
		c-0.1,0.9-0.2,1.7-0.5,2.6c-0.1,0.6-0.5,1.7-1.3,1.6c-0.4-0.1-0.6-0.5-0.7-0.8c-0.2-0.4-0.3-0.9-0.3-1.3c-0.1-0.7-0.2-1.3-0.3-1.9
		c-0.1-0.9-0.3-1.7-0.4-2.5c-0.1-0.9-0.3-1.7-0.5-2.5s-0.4-1.7-0.5-2.5c-0.3-1.7-0.6-3.3-0.7-5c0-0.7-0.1-1.5,0.1-2.2
		c0.2-1.3,1-2.5,2.5-2.9c0.9-0.2,1.6-0.3,2.4-0.3c0.8,0.1,1.6,0.2,2.4,0.3c0.6,0,1.1,0,1.7-0.1c0.5-0.1,1.1-0.1,1.7,0
		c0.5,0.1,1,0.1,1.5,0.4c0.5,0.3,0.9,0.7,1.1,1.3C31.4,15.6,31.4,17.1,31.4,18.4z"/>
	<path class="st4" d="M33,13.5c-0.3-0.3-0.5-0.6-0.9-0.8c0.3,0.5,0.6,1,0.8,1.5c0.3,0.8,0.3,1.6,0.4,2.5c0,0.9,0,1.8-0.1,2.7
		c-0.1,0.9-0.3,1.8-0.4,2.7c-0.1,0.8-0.3,1.6-0.5,2.3c-0.3,1.3-0.5,2.6-0.7,3.9c-0.1,0.9-0.3,1.7-0.5,2.6c-0.1,0.6-0.2,1.1-0.3,1.7
		c-0.1,0.5-0.3,0.9-0.5,1.4c-0.2,0.3-0.5,0.7-0.9,0.7c-0.9,0.1-1.1-1.1-1.3-1.7c-0.1-0.4-0.1-0.9-0.2-1.3c-0.1-0.5-0.2-1.1-0.4-1.6
		c-0.2-0.7-0.5-1.4-1-2s-1.2-1-1.9-0.7c-0.6,0.3-0.9,0.9-1,1.4c-0.1,0.6-0.1,1.2-0.2,1.8c0,0.5,0,0.9-0.1,1.5c0,0.5-0.1,1.1-0.1,1.6
		c-0.1,0.9-0.3,1.9-1.2,2.4c-0.5,0.2-0.9,0.1-1.3-0.3c-0.5-0.5-0.8-1.1-1.1-1.7c-0.2-0.4-0.3-0.9-0.5-1.3c0.1,1.3,0.3,2.9,1.3,3.8
		c0.7,0.7,1.7,0.5,2.2-0.3c0.9-1.3,0.9-3.1,1.1-4.6c0.1-0.9,0.1-1.8,0.4-2.7c0.3-0.8,1.2-1.9,1.9-1c0.8,1.1,0.8,2.4,0.9,3.7
		c0.1,1.5,0.1,3.3,1.1,4.6c0.5,0.7,1.5,1.1,2.2,0.3c0.9-0.9,1.2-2.7,1.3-3.9c0.3-3.7,1.1-7.2,1.7-10.8C33.7,19.2,34.8,15.8,33,13.5z
		"/>
	<path class="st4" d="M30.7,12.7c-0.1-0.1-0.2-0.1-0.3-0.1c-0.1,0-0.3,0-0.4,0c-0.4,0-0.9,0.1-1.3,0.2c-0.5,0.1-0.9,0.2-1.3,0.3
		c-0.3,0.1-0.7,0.2-1.1,0.4c-0.1,0.1-0.3,0.1-0.5,0.2c-0.1,0.1-0.1,0.1-0.3,0.1c-0.5-0.1-1-0.3-1.5-0.4c-0.3-0.1-0.7-0.2-1-0.3
		c-0.3-0.1-0.6-0.2-0.9-0.3c-0.3-0.1-0.6-0.1-0.9-0.1c-0.3,0-0.5,0.1-0.9,0.1c-0.4,0.1-0.9,0.3-1.2,0.5c0.1,0,0.2-0.1,0.3-0.1
		s0.1-0.1,0.1-0.1c0.3-0.1,0.5-0.2,0.7-0.3c0.3-0.1,0.5-0.1,0.8-0.1c0.3,0,0.6,0,0.9,0.1c0.3,0.1,0.6,0.2,0.9,0.3
		c0.3,0.1,0.7,0.2,1,0.3c0.7,0.2,1.3,0.4,2,0.5c0.7,0.1,1.3,0.1,1.9,0.1l0.1-0.1c0.1-0.1,0.1-0.1,0.1-0.1c-0.7,0-1.3,0-2-0.1
		c-0.1,0-0.2,0-0.3-0.1c0.1,0,0.1-0.1,0.2-0.1c0.1-0.1,0.3-0.1,0.4-0.2c0.2-0.1,0.3-0.1,0.5-0.2c0.4-0.1,0.9-0.3,1.3-0.4
		c0.4-0.1,0.8-0.2,1.3-0.3c0.3,0.3,0.5,0.3,0.8,0.3c0.1,0,0.3,0,0.3,0c0.1,0,0.1,0.1,0.2,0.1C30.8,12.8,30.8,12.7,30.7,12.7z"/>
	<g class="st8">
		<path class="st9" d="M26.6,19.9c0.1-0.4,0.4-0.8,0.8-1s0.9-0.1,1.3,0.2c0.2,0.1,0.3,0.3,0.4,0.5c0,0.1-0.1-0.1-0.1-0.1
			c-0.5-0.5-1.2-0.4-1.7,0c-0.2,0.1-0.3,0.3-0.4,0.5C26.7,20.1,26.6,20,26.6,19.9z"/>
		<path class="st9" d="M24,19.9c-0.1-0.4-0.4-0.8-0.8-1c-0.4-0.2-0.9-0.1-1.3,0.2c-0.2,0.1-0.3,0.3-0.4,0.5c0,0.1,0.1-0.1,0.1-0.1
			c0.5-0.5,1.2-0.4,1.7,0c0.2,0.1,0.3,0.3,0.4,0.5C23.9,20.1,24,20,24,19.9z"/>
	</g>
	<path class="st4" d="M27.9,21.7c0,0,0-0.1-0.1-0.1l0,0L27.9,21.7L27.9,21.7C27.8,21.7,27.8,21.7,27.9,21.7c0,0.1,0,0.1-0.1,0.1
		c-0.1,0.1-0.1,0.1-0.2,0.1c-0.1,0-0.3,0-0.5-0.1c-0.4-0.1-0.8-0.1-1.1-0.1c-0.4,0-0.8,0-1.3,0.1c-0.4,0.1-0.8,0.2-1.1,0.4
		c-0.2,0.1-0.4,0.2-0.6,0.3c-0.1,0-0.1,0.1-0.3,0.1c-0.1,0-0.1,0-0.1,0l-0.1-0.1c0,0,0-0.1,0,0c-0.1,0.1-0.1,0.3,0.1,0.3
		c0.1,0,0.1,0,0.2-0.1c0.1,0,0.1,0,0.1,0.1c0.1,0.1,0.1,0.1,0.2,0.3c0.1,0.2,0.3,0.4,0.4,0.7c0.3,0.4,0.6,0.8,1.1,1
		c0.5,0.2,1.1,0.2,1.7-0.1c0.3-0.1,0.5-0.3,0.7-0.5c0.1-0.2,0.3-0.5,0.3-0.7c0.1-0.3,0.1-0.5,0.2-0.7c0.1-0.3,0.2-0.5,0.4-0.6l0,0
		l0,0h0.1C27.9,21.8,27.9,21.8,27.9,21.7z"/>
	<path class="st4" d="M27.5,22.3c-0.1,0.2-0.1,0.4-0.2,0.6c-0.1,0.3-0.1,0.5-0.3,0.8c-0.1,0.3-0.3,0.5-0.5,0.7
		c-0.5,0.4-1.2,0.5-1.8,0.3c-0.5-0.2-0.9-0.6-1.1-1.1c-0.1-0.3-0.3-0.8-0.7-0.9c0.1,0,0.1-0.1,0.1-0.1c0.4-0.2,0.9-0.4,1.3-0.5
		c0.9-0.3,1.9-0.2,2.8-0.1c0.1,0,0.3,0.1,0.5,0C27.6,22.1,27.5,22.2,27.5,22.3z"/>
	<path class="st10" d="M23.3,22.8c0.1,0.1,0.3,0.1,0.4,0.2c0.3,0.1,0.7,0,1,0c0.3-0.1,0.7-0.1,1-0.2c0.4-0.1,0.8-0.2,1.1-0.4
		c0.1-0.1,0.3-0.2,0.4-0.3h-0.1c-0.9-0.1-1.9-0.2-2.8,0.1c-0.5,0.1-0.9,0.3-1.3,0.5C23.1,22.7,23.2,22.7,23.3,22.8z"/>
	<path class="st4" d="M26.6,23.6c-0.3-0.1-0.7,0-1.1,0.1c-0.2,0.1-0.4,0.1-0.5,0.3c-0.2,0.1-0.4,0.3-0.6,0.4l-0.1,0.1
		c0.1,0.1,0.2,0.1,0.3,0.1c0.6,0.3,1.3,0.1,1.8-0.3c0.3-0.2,0.4-0.4,0.5-0.7C26.9,23.7,26.7,23.7,26.6,23.6z"/>
</g>
</svg>
