<?xml version="1.0" encoding="utf-8"?>
<!-- Generator: Adobe Illustrator 25.2.1, SVG Export Plug-In . SVG Version: 6.00 Build 0)  -->
<svg version="1.1" id="Layer_1" xmlns="http://www.w3.org/2000/svg" xmlns:xlink="http://www.w3.org/1999/xlink" x="0px" y="0px"
	 viewBox="0 0 154.93 204.85" style="enable-background:new 0 0 154.93 204.85;" xml:space="preserve">
<style type="text/css">
	.st0{opacity:0.2;fill:#7ED1E2;}
	.st1{opacity:0.42;fill:#50B0FF;}
	.st2{fill:#FFFFFF;stroke:#BDE1FF;stroke-miterlimit:10;}
	.st3{fill:#CBCFD5;stroke:#BDE1FF;stroke-miterlimit:10;}
	.st4{opacity:0.42;fill:#BDE1FF;}
	.st5{opacity:0.42;}
	.st6{fill:#50B0FF;}
	.st7{fill:#FFFFFF;}
</style>
<path class="st0" d="M100.24,201.78C100.24,201.78,100.24,201.78,100.24,201.78c-5.53,0-10.85-2.99-14.59-8.21
	c-7-9.76-7.68-21.49-8.34-32.83c-0.32-5.54-0.65-11.26-1.74-16.56c-0.11-0.53-0.19-1.11-0.29-1.73c-0.31-2.11-0.7-4.74-2.1-5.64
	c-0.13-0.08-0.19-0.09-0.19-0.09c-0.24,0.1-0.75,0.74-1.55,3.23l-0.11,0.35c-2.22,6.71-2.66,14.18-3.08,21.4
	c-0.64,11-1.31,22.37-8.13,31.88c-3.74,5.22-9.06,8.21-14.59,8.21c-4.35,0-8.39-1.82-11.68-5.27c-7.78-8.16-9.8-20.94-10.75-32.36
	c-1.77-21.31-5.6-42.79-9.3-63.57l-0.04-0.2c-0.75-4.18-1.49-8.37-2.22-12.56c-0.43-2.47-0.93-5.03-1.47-7.74
	C6.6,62.36,2.26,40.32,14.96,23.49c5.93-7.86,15.45-12.54,26.8-13.18c0.95-0.05,1.95-0.08,2.97-0.08c4.39,0,8.77,0.49,13.01,0.96
	c2.26,0.25,4.59,0.51,6.89,0.69c6.39,0.51,12.8-0.11,18.99-0.7c5.16-0.49,10.49-1,15.95-1c1.53,0,3.04,0.04,4.46,0.12
	c11.35,0.64,20.87,5.31,26.8,13.18c12.7,16.83,8.36,38.88,4.88,56.59c-0.53,2.71-1.04,5.27-1.47,7.74
	c-0.73,4.19-1.48,8.38-2.22,12.56l-0.04,0.2c-3.71,20.78-7.54,42.26-9.3,63.57c-0.95,11.42-2.97,24.2-10.75,32.36
	C108.63,199.95,104.59,201.78,100.24,201.78z M44.72,13.07c-0.96,0-1.91,0.03-2.81,0.08c-10.5,0.59-19.27,4.87-24.69,12.05
	C5.3,41.02,9.5,62.37,12.87,79.53c0.54,2.73,1.04,5.3,1.48,7.8c0.73,4.19,1.48,8.37,2.22,12.55l0.04,0.2
	c3.72,20.84,7.56,42.39,9.34,63.83c0.91,10.93,2.8,23.11,9.97,30.63c2.74,2.87,6.07,4.39,9.62,4.39c4.6,0,9.08-2.56,12.28-7.02
	c6.34-8.84,6.95-19.3,7.6-30.38c0.43-7.41,0.88-15.06,3.22-22.13l0.11-0.33c0.71-2.2,1.55-4.4,3.34-5.04
	c0.6-0.22,1.55-0.33,2.65,0.38c2.48,1.59,3,5.07,3.37,7.61c0.09,0.58,0.17,1.13,0.26,1.58c1.13,5.5,1.46,11.33,1.79,16.97
	c0.63,10.94,1.29,22.25,7.81,31.34c3.2,4.46,7.68,7.02,12.28,7.02c3.56,0,6.88-1.52,9.62-4.39c7.17-7.51,9.06-19.7,9.97-30.63
	c1.78-21.44,5.62-42.99,9.34-63.83l0.04-0.2c0.74-4.18,1.49-8.36,2.22-12.55c0.44-2.5,0.94-5.08,1.48-7.8
	c3.37-17.16,7.57-38.51-4.36-54.32c-5.42-7.18-14.18-11.46-24.69-12.05c-1.37-0.08-2.82-0.12-4.3-0.12c-5.33,0-10.59,0.5-15.68,0.99
	c-6.31,0.6-12.84,1.22-19.48,0.7c-2.34-0.18-4.7-0.45-6.98-0.7C53.26,13.56,48.95,13.07,44.72,13.07z"/>
<path class="st1" d="M100.24,201.49L100.24,201.49c-5.44,0-10.67-2.95-14.36-8.09c-6.95-9.69-7.63-21.38-8.28-32.68
	c-0.32-5.55-0.65-11.28-1.74-16.6c-0.11-0.52-0.19-1.1-0.28-1.72c-0.32-2.17-0.72-4.87-2.22-5.84c-0.18-0.11-0.31-0.16-0.4-0.12
	c-0.75,0.27-1.51,2.63-1.76,3.41l-0.11,0.35c-2.23,6.75-2.67,14.24-3.09,21.48c-0.64,10.96-1.3,22.29-8.08,31.73
	c-3.69,5.14-8.92,8.09-14.36,8.09c-4.27,0-8.24-1.79-11.48-5.18c-7.72-8.09-9.73-20.81-10.67-32.19c-1.77-21.32-5.6-42.81-9.31-63.6
	l-0.04-0.2c-0.75-4.18-1.49-8.37-2.22-12.56c-0.43-2.48-0.94-5.04-1.47-7.75c-3.47-17.66-7.79-39.63,4.83-56.36
	c5.88-7.79,15.32-12.43,26.59-13.06c0.95-0.05,1.94-0.08,2.95-0.08c4.37,0,8.75,0.49,12.98,0.96c2.26,0.25,4.6,0.51,6.9,0.69
	c6.42,0.51,12.83-0.11,19.04-0.7c5.15-0.49,10.47-1,15.92-1c1.53,0,3.02,0.04,4.44,0.12c11.27,0.63,20.71,5.27,26.59,13.06
	c12.62,16.73,8.3,38.71,4.83,56.36c-0.53,2.71-1.04,5.27-1.47,7.75c-0.73,4.19-1.48,8.37-2.22,12.56l-0.04,0.2
	c-3.71,20.78-7.54,42.27-9.31,63.6c-0.94,11.37-2.95,24.09-10.67,32.18C108.48,199.7,104.51,201.49,100.24,201.49z M44.72,12.79
	c-0.97,0-1.92,0.03-2.82,0.08C31.31,13.46,22.47,17.78,17,25.03c-12.01,15.92-7.8,37.34-4.41,54.55c0.54,2.72,1.04,5.3,1.48,7.8
	c0.73,4.19,1.48,8.37,2.22,12.55l0.04,0.2c3.72,20.83,7.56,42.38,9.33,63.81c0.91,10.98,2.82,23.22,10.05,30.8
	c2.8,2.93,6.19,4.48,9.83,4.48c4.7,0,9.26-2.6,12.51-7.14c6.39-8.9,7-19.41,7.65-30.53c0.43-7.39,0.88-15.03,3.2-22.06l0.11-0.33
	c0.69-2.13,1.5-4.26,3.16-4.86c0.54-0.2,1.4-0.29,2.4,0.35c2.37,1.53,2.86,4.79,3.24,7.42c0.09,0.58,0.17,1.14,0.26,1.6
	c1.12,5.48,1.46,11.3,1.79,16.93c0.63,10.98,1.29,22.33,7.86,31.49c3.25,4.54,7.81,7.14,12.51,7.14c3.64,0,7.03-1.55,9.83-4.48
	c7.23-7.58,9.14-19.82,10.05-30.8c1.78-21.43,5.62-42.97,9.33-63.81l0.04-0.2c0.74-4.18,1.49-8.36,2.22-12.55
	c0.44-2.5,0.94-5.07,1.48-7.8c3.39-17.21,7.6-38.63-4.41-54.55c-5.47-7.25-14.31-11.57-24.9-12.16c-1.38-0.08-2.83-0.12-4.32-0.12
	c-5.34,0-10.61,0.5-15.7,0.99c-6.3,0.6-12.81,1.22-19.43,0.7c-2.33-0.18-4.69-0.45-6.97-0.7C53.28,13.27,48.97,12.79,44.72,12.79z"
	/>
<g>
	<path class="st2" d="M125.14,27.77c-5.14-6.81-13.24-9.89-21.52-10.36c-13.92-0.78-27.36,2.9-41.41,1.51
		c-6.65-0.66-13.35-1.89-20.06-1.51c-8.28,0.46-16.38,3.55-21.52,10.36c-12.51,16.59-5.28,40.5-2.08,58.82
		c4.47,25.61,9.49,51.03,11.64,76.97c0.74,8.91,2.29,21.21,8.81,28.04c5.04,5.28,11.48,3.22,15.35-2.17
		c6.45-8.99,6.13-22,7.22-32.54c0.65-6.31,1.01-12.76,3.01-18.83c1.93-5.82,8.06-13.86,13.03-7.01c5.37,7.4,5.68,17.03,6.59,25.84
		c1.09,10.53,0.77,23.55,7.22,32.54c3.87,5.39,10.31,7.45,15.35,2.17c6.51-6.83,8.07-19.13,8.81-28.04
		c2.15-25.94,7.17-51.35,11.64-76.97C130.42,68.27,137.65,44.36,125.14,27.77z"/>
	<path class="st3" d="M100.24,194.95c-0.19,0-0.39-0.01-0.58-0.02c-3.1-0.22-6.18-2.16-8.46-5.34c-5.31-7.41-6.08-17.64-6.77-26.67
		c-0.16-2.09-0.31-4.07-0.51-6c-0.1-1.01-0.2-2.02-0.3-3.05c-0.75-7.95-1.52-16.16-6.24-22.66c-1.37-1.89-2.91-2.72-4.58-2.46
		c-3.32,0.52-6.58,5.23-7.96,9.4c-1.68,5.09-2.21,10.55-2.71,15.83c-0.09,0.98-0.19,1.96-0.29,2.94c-0.2,1.93-0.35,3.91-0.51,6
		c-0.68,9.03-1.45,19.27-6.77,26.67c-2.28,3.18-5.36,5.12-8.46,5.34c-2.66,0.19-5.19-0.9-7.33-3.14
		c-6.35-6.66-8.08-18.57-8.88-28.21c-1.79-21.62-5.65-43.27-9.39-64.21c-0.76-4.24-1.51-8.48-2.25-12.73
		c-0.44-2.53-0.95-5.13-1.49-7.89C13.39,61.53,9.55,42,20.41,27.6c4.7-6.23,12.42-9.95,21.73-10.47c4.97-0.28,10,0.33,14.87,0.92
		c1.72,0.21,3.5,0.42,5.24,0.59c7.45,0.74,14.86,0.03,22.02-0.66c6.31-0.6,12.84-1.23,19.38-0.86c9.31,0.52,17.03,4.24,21.73,10.47
		l0,0c10.86,14.4,7.02,33.93,3.63,51.16c-0.54,2.75-1.05,5.35-1.49,7.89c-0.74,4.25-1.5,8.5-2.25,12.74
		c-3.73,20.93-7.59,42.58-9.39,64.2c-1.52,18.35-5.55,24.71-8.88,28.21C105,193.87,102.68,194.95,100.24,194.95z M44.71,17.63
		c-0.85,0-1.69,0.02-2.53,0.07c-9.14,0.51-16.71,4.15-21.31,10.25c-10.71,14.2-6.89,33.59-3.53,50.71c0.54,2.76,1.05,5.36,1.5,7.9
		c0.74,4.25,1.5,8.49,2.25,12.73c3.74,20.95,7.6,42.61,9.39,64.26c1.51,18.17,5.46,24.43,8.73,27.86c2.01,2.11,4.38,3.13,6.87,2.96
		c2.93-0.2,5.86-2.06,8.04-5.1c5.22-7.28,5.99-17.43,6.66-26.38c0.16-2.1,0.31-4.08,0.51-6.02c0.1-0.98,0.19-1.95,0.29-2.93
		c0.51-5.31,1.03-10.8,2.74-15.95c1.43-4.33,4.87-9.23,8.41-9.78c1.89-0.29,3.62,0.61,5.12,2.69c4.81,6.62,5.59,14.92,6.34,22.94
		c0.1,1.02,0.19,2.04,0.3,3.04c0.2,1.94,0.35,3.92,0.51,6.02c0.68,8.96,1.44,19.11,6.66,26.38c2.18,3.04,5.11,4.9,8.04,5.1
		c2.49,0.17,4.86-0.85,6.87-2.96c6.23-6.53,7.93-18.32,8.73-27.86c1.8-21.65,5.66-43.31,9.39-64.26c0.76-4.24,1.51-8.49,2.25-12.74
		c0.44-2.54,0.95-5.14,1.5-7.9c3.37-17.11,7.18-36.51-3.53-50.71c-4.6-6.09-12.16-9.73-21.31-10.25c-6.49-0.36-13,0.26-19.29,0.86
		c-7.19,0.69-14.63,1.39-22.13,0.66c-1.75-0.17-3.53-0.39-5.25-0.6C52.93,18.13,48.8,17.63,44.71,17.63z"/>
</g>
<path class="st4" d="M125.14,27.77c-5.14-6.81-13.24-9.89-21.52-10.36c-13.92-0.78-27.36,2.9-41.41,1.51
	c-6.65-0.66-13.35-1.89-20.06-1.51c-8.28,0.46-16.38,3.55-21.52,10.36c-12.51,16.59-5.28,40.5-2.08,58.82
	c4.47,25.61,9.49,51.03,11.64,76.97c0.74,8.91,2.29,21.21,8.81,28.04c5.04,5.28,11.48,3.22,15.35-2.17c6.45-8.99,6.13-22,7.22-32.54
	c0.65-6.31,1.01-12.76,3.01-18.83c1.93-5.82,8.06-13.86,13.03-7.01c5.37,7.4,5.68,17.03,6.59,25.84
	c1.09,10.53,0.77,23.55,7.22,32.54c3.87,5.39,10.31,7.45,15.35,2.17c6.51-6.83,8.07-19.13,8.81-28.04
	c2.15-25.94,7.17-51.35,11.64-76.97C130.42,68.27,137.65,44.36,125.14,27.77z M114.31,63.15c-0.16,5.07-0.59,10.12-1.04,15.17
	c-0.48,5.36-0.93,10.72-1.41,16.08c-1.01,11.23-2.36,22.59-6.21,33.25c-1.35,3.74-3.05,7.53-5.44,10.73
	c-1.95,2.61-4.75,5.05-8.24,4.47c-3.93-0.66-9.37-15.31-11.6-18.72c-1.17-1.79-2.76-3.37-4.78-4.16c-2.11-0.83-4.36-0.68-6.52-0.11
	c-3.64,0.96-6.4,3.6-8.38,6.7c-2.14,3.35-3.51,7.15-4.62,10.95c-0.92,3.15-1.81,6.39-2.4,9.62c-1.12,6.15-1.56,12.39-3.1,18.47
	c-1.04,4.13-3.28,12.42-9.14,11.34c-2.67-0.49-4.21-3.25-5.15-5.54c-1.22-2.96-1.86-6.16-2.35-9.31c-0.71-4.63-1.25-9.29-1.95-13.92
	c-0.91-6.07-1.92-12.12-3-18.16c-1.09-6.04-2.26-12.07-3.49-18.08c-1.22-5.97-2.64-11.89-3.86-17.85c-2.39-11.72-4-23.62-4.41-35.58
	c-0.18-5.23-0.33-10.57,0.4-15.76c1.34-9.46,7.08-18.08,17.11-20.26c5.83-1.26,10.86-2.37,16.74-1.76
	c5.47,0.57,10.93,1.59,16.43,1.77c4,0.13,7.99-0.09,11.98-0.35c3.85-0.25,7.73-0.52,11.58-0.19c3.52,0.3,7.02,1.16,10.06,3.02
	c3.51,2.15,6.12,5.45,8.01,9.06C114.18,42.83,114.62,53.41,114.31,63.15z"/>
<path class="st1" d="M125.14,27.77c-1.68-2.23-3.68-4.05-5.9-5.52c2.52,3.27,4.33,7.06,5.58,11.01c1.77,5.6,2.47,11.5,2.66,17.35
	c0.21,6.43-0.21,12.87-0.94,19.26c-0.72,6.33-1.75,12.61-2.92,18.87c-1.05,5.63-2.23,11.23-3.37,16.84
	c-1.87,9.25-3.49,18.54-5.1,27.83c-1.07,6.18-2.13,12.37-3.26,18.54c-0.75,4.12-1.43,8.26-2.32,12.35
	c-0.72,3.36-1.65,6.78-3.35,9.79c-1.39,2.46-3.48,4.68-6.46,4.85c-6.06,0.34-7.71-7.88-8.51-12.35c-0.53-2.99-0.82-6.01-1.24-9.02
	c-0.54-3.94-1.53-7.86-2.71-11.65c-1.55-5.01-3.6-10.08-6.73-14.33c-3.05-4.15-8.31-7.13-13.33-4.65
	c-3.91,1.93-5.84,5.96-6.79,10.02c-0.97,4.12-1.09,8.4-1.18,12.62c-0.07,3.4-0.23,6.78-0.33,10.18c-0.11,3.83-0.28,7.67-0.76,11.48
	c-0.75,5.96-2.19,13.85-8.14,16.85c-3.25,1.64-6.5,0.43-8.97-1.97c-3.44-3.33-5.62-7.95-7.44-12.3c-1.28-3.04-2.38-6.15-3.37-9.3
	c0.77,8.82,2.44,20.49,8.72,27.08c5.04,5.28,11.48,3.22,15.35-2.17c6.45-8.99,6.13-22,7.22-32.54c0.65-6.31,1.01-12.76,3.01-18.83
	c1.93-5.82,8.06-13.86,13.03-7.01c5.37,7.4,5.68,17.03,6.59,25.84c1.09,10.53,0.77,23.55,7.22,32.54
	c3.87,5.39,10.31,7.45,15.35,2.17c6.51-6.83,8.07-19.13,8.81-28.04c2.15-25.94,7.17-51.35,11.64-76.97
	C130.42,68.27,137.65,44.36,125.14,27.77z"/>
<path class="st1" d="M109.63,21.96c-0.77-0.32-1.56-0.58-2.34-0.83c-0.9-0.08-1.81-0.11-2.72-0.07c-2.94,0.13-5.82,0.79-8.67,1.51
	c-3.01,0.76-6.02,1.54-8.98,2.48c-2.49,0.79-5.08,1.55-7.4,2.77c-1.06,0.56-2.12,1.13-3.21,1.62c-0.51,0.23-1.08,0.46-1.66,0.61
	c-3.51-0.76-6.96-1.82-10.39-2.86c-2.31-0.7-4.62-1.44-6.9-2.22c-2.16-0.74-4.31-1.53-6.54-2.07c-2.07-0.5-4.2-0.8-6.34-0.69
	c-1.95,0.1-3.88,0.5-5.75,1.01c-2.98,0.82-5.97,1.92-8.47,3.74c0.66-0.13,1.32-0.24,1.99-0.29c0.26-0.12,0.52-0.24,0.77-0.35
	c1.68-0.75,3.44-1.31,5.22-1.76c1.8-0.45,3.65-0.87,5.51-0.96c2.13-0.1,4.25,0.19,6.32,0.71c2.13,0.54,4.19,1.3,6.27,2.03
	c2.24,0.78,4.5,1.5,6.77,2.19c4.51,1.36,9.06,2.79,13.73,3.47c4.4,0.65,8.93,0.81,13.38,0.47c0.22-0.12,0.44-0.24,0.66-0.35
	c0.37-0.24,0.73-0.51,1.07-0.8c-4.57-0.06-9.1,0.04-13.64-0.61c-0.65-0.09-1.29-0.2-1.94-0.32c0.53-0.19,1.04-0.41,1.49-0.61
	c0.92-0.4,1.82-0.85,2.73-1.25c1.22-0.53,2.52-0.91,3.78-1.33c3.01-0.98,6.04-1.83,9.1-2.61c2.85-0.73,5.7-1.51,8.62-1.89
	c1.64-0.22,3.28-0.3,4.93-0.19c0.86,0.06,1.71,0.17,2.55,0.34c0.52,0.1,1.04,0.26,1.56,0.4C110.69,22.74,110.19,22.31,109.63,21.96z
	"/>
<g class="st5">
	<path class="st6" d="M81.26,73.46c0.79-2.91,2.59-5.67,5.45-6.89c2.83-1.21,6.1-0.51,8.5,1.31c1.28,0.98,2.44,2.32,2.86,3.9
		c0.17,0.65-1.02-0.68-1.13-0.8c-3.08-3.21-8.05-2.71-11.56-0.13c-1.21,0.89-2.14,2.06-2.9,3.35C82.15,74.78,81.12,74,81.26,73.46z"
		/>
	<path class="st6" d="M63.24,73.46c-0.79-2.91-2.59-5.67-5.45-6.89c-2.83-1.21-6.1-0.51-8.5,1.31c-1.28,0.98-2.44,2.32-2.86,3.9
		c-0.17,0.65,1.02-0.68,1.13-0.8c3.08-3.21,8.05-2.71,11.56-0.13c1.21,0.89,2.14,2.06,2.9,3.35C62.35,74.78,63.38,74,63.24,73.46z"
		/>
</g>
<path class="st1" d="M89.8,86.08c-0.13-0.24-0.24-0.51-0.31-0.79c-0.08,0.03-0.17,0.08-0.24,0.15c0.25,0.11,0.24,0.56-0.09,0.59
	c-0.03,0-0.05,0-0.07-0.01c0.04,0.31,0.13,0.61,0.28,0.87c-0.04,0.21-0.15,0.42-0.31,0.6c-0.37,0.43-0.99,0.55-1.52,0.6
	c-1.1,0.1-2.2-0.12-3.28-0.29c-2.63-0.42-5.32-0.6-7.98-0.63c-2.88-0.03-5.77,0.2-8.59,0.8c-2.75,0.59-5.39,1.58-7.97,2.68
	c-1.42,0.6-2.82,1.23-4.22,1.87c-0.55,0.25-1.06,0.59-1.61,0.82c-0.26,0.11-0.51,0.19-0.79,0.09c-0.18-0.07-0.66-0.33-0.49-0.59
	c0.1-0.14-0.01-0.33-0.18-0.21c-0.86,0.59-0.28,1.84,0.69,1.82c0.52-0.01,1.02-0.26,1.47-0.5c0.37,0,0.75,0.11,1.11,0.33
	c0.66,0.4,1.15,1.02,1.58,1.65c0.97,1.42,1.66,3.03,2.57,4.5c1.86,3,4.25,5.69,7.59,7.04c3.8,1.53,8.03,1.27,11.58-0.78
	c1.72-0.99,3.27-2.3,4.36-3.97c1.04-1.59,1.7-3.4,2.25-5.21c0.54-1.76,0.94-3.56,1.51-5.3c0.53-1.64,1.29-3.56,2.96-4.33
	c0.1-0.05,0.16-0.15,0.19-0.25c0.07,0.01,0.15,0.03,0.22,0.04c0.19,0.02,0.4-0.08,0.55-0.24C90.51,87.15,90.1,86.64,89.8,86.08z"/>
<path class="st1" d="M87.15,90.58c-0.63,1.4-0.99,2.89-1.4,4.37c-0.52,1.86-1.03,3.73-1.82,5.5c-0.84,1.89-1.97,3.48-3.61,4.75
	c-3.57,2.77-8.24,3.46-12.44,1.75c-3.44-1.41-5.78-4.22-7.58-7.38c-0.96-1.69-2.53-5.55-4.75-6.12c0.33-0.17,0.65-0.34,0.98-0.51
	c2.97-1.48,5.97-2.92,9.17-3.85c6.28-1.81,12.88-1.43,19.26-0.5c1.1,0.16,2.37,0.32,3.46-0.07C87.89,89.12,87.47,89.85,87.15,90.58z
	"/>
<path class="st7" d="M58.07,94.45c0.82,0.73,1.85,1.16,2.91,1.4c2.32,0.51,4.78,0.24,7.1-0.15c2.35-0.4,4.7-0.93,7.01-1.53
	c2.65-0.68,5.35-1.54,7.64-3.07c1-0.67,1.91-1.47,2.62-2.45c-0.13-0.02-0.26-0.04-0.38-0.05c-6.39-0.93-12.99-1.31-19.26,0.5
	c-3.08,0.89-5.97,2.25-8.83,3.68C57.15,93.4,57.55,93.98,58.07,94.45z"/>
<path class="st1" d="M81.41,100.1c-2.43-0.32-4.98-0.23-7.3,0.63c-1.29,0.49-2.56,1.05-3.79,1.7c-1.44,0.76-2.89,1.65-4.05,2.82
	c-0.18,0.18-0.35,0.37-0.51,0.57c0.65,0.43,1.35,0.81,2.1,1.12c4.2,1.71,8.87,1.02,12.44-1.75c1.61-1.25,2.73-2.81,3.57-4.65
	C83.06,100.37,82.24,100.21,81.41,100.1z"/>
</svg>
