<!DOCTYPE svg PUBLIC "-//W3C//DTD SVG 1.1//EN" "http://www.w3.org/Graphics/SVG/1.1/DTD/svg11.dtd">
<!-- Uploaded to: SVG Repo, www.svgrepo.com, Transformed by: SVG Repo Mixer Tools -->
<svg fill="rgb(28, 123, 255)" width="800px" height="800px" viewBox="0 0 36 36" version="1.1" preserveAspectRatio="xMidYMid meet" xmlns="http://www.w3.org/2000/svg" xmlns:xlink="http://www.w3.org/1999/xlink">
<g id="SVGRepo_bgCarrier" stroke-width="0"/>
<g id="SVGRepo_tracerCarrier" stroke-linecap="round" stroke-linejoin="round"/>
<g id="SVGRepo_iconCarrier"> <title>paste-solid</title> <path d="M30,12H26v2h4v2h2V14A2,2,0,0,0,30,12Z" class="clr-i-solid clr-i-solid-path-1"/>
<rect x="30" y="18" width="2" height="6" class="clr-i-solid clr-i-solid-path-2"/>
<path d="M30,30H28v2h2a2,2,0,0,0,2-2V26H30Z" class="clr-i-solid clr-i-solid-path-3"/>
<rect x="4" y="4" width="20" height="20" rx="2" ry="2" class="clr-i-solid clr-i-solid-path-4"/>
<rect x="20" y="30" width="6" height="2" class="clr-i-solid clr-i-solid-path-5"/>
<path d="M14,26H12v4a2,2,0,0,0,2,2h4V30H14Z" class="clr-i-solid clr-i-solid-path-6"/> <rect x="0" y="0" width="36" height="36" fill-opacity="0"/> </g>
</svg>