<!DOCTYPE svg PUBLIC "-//W3C//DTD SVG 1.1//EN" "http://www.w3.org/Graphics/SVG/1.1/DTD/svg11.dtd">
<!-- Uploaded to: SVG Repo, www.svgrepo.com, Transformed by: SVG Repo Mixer Tools -->
<svg fill="#ffffff" version="1.1" id="Layer_1" xmlns="http://www.w3.org/2000/svg" xmlns:xlink="http://www.w3.org/1999/xlink" viewBox="0 0 511.998 511.998" xml:space="preserve" width="800px" height="800px" stroke="#ffffff">
<g id="SVGRepo_bgCarrier" stroke-width="0"/>
<g id="SVGRepo_tracerCarrier" stroke-linecap="round" stroke-linejoin="round"/>
<g id="SVGRepo_iconCarrier"> <g> <g> <path d="M115.144,44.51C94.653,59.406,76.6,77.459,61.703,97.95l43.299,24.997c10.138-13.181,21.958-25.002,35.14-35.14 L115.144,44.51z"/> </g> </g> <g> <g> <path d="M36.793,140.923c-10.181,22.712-16.937,47.28-19.597,73.044l50.013-0.002c2.197-16.796,6.596-32.906,12.89-48.041 L36.793,140.923z"/> </g> </g> <g> <g> <rect x="15.917" y="263.643" width="49.672" height="49.67"/> </g> </g> <g> <g> <path d="M231.161,0c-25.767,2.659-50.333,9.418-73.044,19.599l25.003,43.304c15.133-6.295,31.245-10.693,48.043-12.89L231.161,0z"/> </g> </g> <g> <g> <path d="M396.853,44.51l-24.997,43.297c13.18,10.138,25.002,21.958,35.14,35.14l43.297-24.998 C435.396,77.457,417.346,59.404,396.853,44.51z"/> </g> </g> <g> <g> <path d="M280.834,0l0.002,50.013c16.796,2.195,32.906,6.595,48.04,12.888l25.002-43.304C331.166,9.416,306.598,2.659,280.834,0z"/> </g> </g> <g> <g> <path d="M446.409,362.982v24.836c0,13.695,11.141,24.836,24.836,24.836s24.836-11.141,24.836-24.836v-24.836H446.409z"/> </g> </g> <g> <g> <path d="M475.205,140.921l-43.304,25.003c6.292,15.135,10.689,31.245,12.888,48.041h50.013 C492.144,188.201,485.385,163.633,475.205,140.921z"/> </g> </g> <g> <g> <rect x="446.402" y="263.643" width="49.672" height="49.672"/> </g> </g> <g> <g> <path d="M471.245,462.326c-41.084,0.002-74.508-33.423-74.508-74.508V238.802c0-77.603-63.135-140.738-140.738-140.738 s-140.738,63.135-140.738,140.738v149.016c0,41.084-33.424,74.508-74.508,74.508c-8.706,0-17.062-1.515-24.836-4.272v29.108 c0,13.695,11.141,24.836,24.836,24.836h430.491c13.695,0,24.836-11.141,24.836-24.836v-29.108 C488.307,460.811,479.951,462.326,471.245,462.326z"/> </g> </g> <g> <g> <path d="M15.917,362.982v24.836c0,13.696,11.141,24.836,24.836,24.836c13.695,0,24.836-11.141,24.836-24.836v-24.836H15.917z"/> </g> </g> </g>
</svg>